name ./resultDataOpenSim/trcMotMarkerGrf/sub10/grf-02-04.mot
datacolumns 19
datarows 30
range 0.48800000 0.60400000
endheader

                time	     ground_force_vx	     ground_force_vy	     ground_force_vz	     ground_force_px	     ground_force_py	     ground_force_pz	   l_ground_force_vx	   l_ground_force_vy	   l_ground_force_vz	   l_ground_force_px	   l_ground_force_py	   l_ground_force_pz	     ground_torque_x	     ground_torque_y	     ground_torque_z	   l_ground_torque_x	   l_ground_torque_y	   l_ground_torque_z	
          0.48800000	         31.24763155	        457.24015747	        -16.68453157	         -0.81209635	          0.00000000	          0.01648531	          0.00000000	          0.00000000	          0.00000000	          0.00000000	          0.00000000	          0.00000000	          0.00000000	          3.80722505	          0.00000000	          0.00000000	          0.00000000	          0.00000000	
          0.49200000	         32.64753755	        460.63735722	        -17.24189811	         -0.81075256	          0.00000000	          0.01645385	          0.00000000	          0.00000000	          0.00000000	          0.00000000	          0.00000000	          0.00000000	          0.00000000	          3.92088543	          0.00000000	          0.00000000	          0.00000000	          0.00000000	
          0.49600000	         34.00651072	        464.12974266	        -18.12509124	         -0.80932555	          0.00000000	          0.01643868	          0.00000000	          0.00000000	          0.00000000	          0.00000000	          0.00000000	          0.00000000	          0.00000000	          4.00864147	          0.00000000	          0.00000000	          0.00000000	          0.00000000	
          0.50000000	         35.45776937	        467.70484479	        -19.30780665	         -0.80781267	          0.00000000	          0.01644524	          0.00000000	          0.00000000	          0.00000000	          0.00000000	          0.00000000	          0.00000000	          0.00000000	          4.07297431	          0.00000000	          0.00000000	          0.00000000	          0.00000000	
          0.50400000	         37.13619010	        471.34236601	        -20.72371886	         -0.80623008	          0.00000000	          0.01647574	          0.00000000	          0.00000000	          0.00000000	          0.00000000	          0.00000000	          0.00000000	          0.00000000	          4.11858014	          0.00000000	          0.00000000	          0.00000000	          0.00000000	
          0.50800000	         39.12473119	        475.04230283	        -22.27559215	         -0.80460096	          0.00000000	          0.01653036	          0.00000000	          0.00000000	          0.00000000	          0.00000000	          0.00000000	          0.00000000	          0.00000000	          4.15095393	          0.00000000	          0.00000000	          0.00000000	          0.00000000	
          0.51200000	         41.42401133	        478.84192040	        -23.85838971	         -0.80291933	          0.00000000	          0.01661208	          0.00000000	          0.00000000	          0.00000000	          0.00000000	          0.00000000	          0.00000000	          0.00000000	          4.17534277	          0.00000000	          0.00000000	          0.00000000	          0.00000000	
          0.51600000	         43.95247005	        482.81735382	        -25.38358926	         -0.80115626	          0.00000000	          0.01671417	          0.00000000	          0.00000000	          0.00000000	          0.00000000	          0.00000000	          0.00000000	          0.00000000	          4.19618994	          0.00000000	          0.00000000	          0.00000000	          0.00000000	
          0.52000000	         46.56431074	        487.08389693	        -26.79651752	         -0.79927241	          0.00000000	          0.01681925	          0.00000000	          0.00000000	          0.00000000	          0.00000000	          0.00000000	          0.00000000	          0.00000000	          4.21679817	          0.00000000	          0.00000000	          0.00000000	          0.00000000	
          0.52400000	         49.08105614	        491.79139961	        -28.08319507	         -0.79722820	          0.00000000	          0.01690762	          0.00000000	          0.00000000	          0.00000000	          0.00000000	          0.00000000	          0.00000000	          0.00000000	          4.23895970	          0.00000000	          0.00000000	          0.00000000	          0.00000000	
          0.52800000	         51.33733459	        497.10576578	        -29.26277619	         -0.79499618	          0.00000000	          0.01696363	          0.00000000	          0.00000000	          0.00000000	          0.00000000	          0.00000000	          0.00000000	          0.00000000	          4.26263968	          0.00000000	          0.00000000	          0.00000000	          0.00000000	
          0.53200000	         53.22733153	        503.17983996	        -30.37211103	         -0.79258223	          0.00000000	          0.01697929	          0.00000000	          0.00000000	          0.00000000	          0.00000000	          0.00000000	          0.00000000	          0.00000000	          4.28606809	          0.00000000	          0.00000000	          0.00000000	          0.00000000	
          0.53600000	         54.73382118	        510.11790472	        -31.45362837	         -0.79002356	          0.00000000	          0.01695227	          0.00000000	          0.00000000	          0.00000000	          0.00000000	          0.00000000	          0.00000000	          0.00000000	          4.30651463	          0.00000000	          0.00000000	          0.00000000	          0.00000000	
          0.54000000	         55.93238473	        517.94895761	        -32.54704476	         -0.78736700	          0.00000000	          0.01688489	          0.00000000	          0.00000000	          0.00000000	          0.00000000	          0.00000000	          0.00000000	          0.00000000	          4.32162282	          0.00000000	          0.00000000	          0.00000000	          0.00000000	
          0.54400000	         56.97172146	        526.63432991	        -33.68059594	         -0.78465207	          0.00000000	          0.01678359	          0.00000000	          0.00000000	          0.00000000	          0.00000000	          0.00000000	          0.00000000	          0.00000000	          4.33075434	          0.00000000	          0.00000000	          0.00000000	          0.00000000	
          0.54800000	         58.03377513	        536.10909444	        -34.86181961	         -0.78191196	          0.00000000	          0.01665693	          0.00000000	          0.00000000	          0.00000000	          0.00000000	          0.00000000	          0.00000000	          0.00000000	          4.33568235	          0.00000000	          0.00000000	          0.00000000	          0.00000000	
          0.55200000	         59.28313551	        546.32562676	        -36.07016898	         -0.77917888	          0.00000000	          0.01651228	          0.00000000	          0.00000000	          0.00000000	          0.00000000	          0.00000000	          0.00000000	          0.00000000	          4.34028421	          0.00000000	          0.00000000	          0.00000000	          0.00000000	
          0.55600000	         60.82350085	        557.26874439	        -37.25551316	         -0.77648110	          0.00000000	          0.01635550	          0.00000000	          0.00000000	          0.00000000	          0.00000000	          0.00000000	          0.00000000	          0.00000000	          4.34940146	          0.00000000	          0.00000000	          0.00000000	          0.00000000	
          0.56000000	         62.67823259	        568.93859595	        -38.34779799	         -0.77384024	          0.00000000	          0.01618985	          0.00000000	          0.00000000	          0.00000000	          0.00000000	          0.00000000	          0.00000000	          0.00000000	          4.36738297	          0.00000000	          0.00000000	          0.00000000	          0.00000000	
          0.56400000	         64.79893472	        581.32463812	        -39.27816055	         -0.77127317	          0.00000000	          0.01601257	          0.00000000	          0.00000000	          0.00000000	          0.00000000	          0.00000000	          0.00000000	          0.00000000	          4.39679779	          0.00000000	          0.00000000	          0.00000000	          0.00000000	
          0.56800000	         67.09400361	        594.39630513	        -40.00338362	         -0.76879211	          0.00000000	          0.01581466	          0.00000000	          0.00000000	          0.00000000	          0.00000000	          0.00000000	          0.00000000	          0.00000000	          4.43752186	          0.00000000	          0.00000000	          0.00000000	          0.00000000	
          0.57200000	         69.46748283	        608.11181857	        -40.52304941	         -0.76640707	          0.00000000	          0.01558681	          0.00000000	          0.00000000	          0.00000000	          0.00000000	          0.00000000	          0.00000000	          0.00000000	          4.48618805	          0.00000000	          0.00000000	          0.00000000	          0.00000000	
          0.57600000	         71.85952726	        622.42731028	        -40.88302383	         -0.76413455	          0.00000000	          0.01532640	          0.00000000	          0.00000000	          0.00000000	          0.00000000	          0.00000000	          0.00000000	          0.00000000	          4.53604231	          0.00000000	          0.00000000	          0.00000000	          0.00000000	
          0.58000000	         74.27750736	        637.29343931	        -41.16472599	         -0.76200303	          0.00000000	          0.01503618	          0.00000000	          0.00000000	          0.00000000	          0.00000000	          0.00000000	          0.00000000	          0.00000000	          4.57747828	          0.00000000	          0.00000000	          0.00000000	          0.00000000	
          0.58400000	         76.80688855	        652.64371965	        -41.46517583	         -0.76005242	          0.00000000	          0.01472340	          0.00000000	          0.00000000	          0.00000000	          0.00000000	          0.00000000	          0.00000000	          0.00000000	          4.59962559	          0.00000000	          0.00000000	          0.00000000	          0.00000000	
          0.58800000	         79.59950440	        668.38755147	        -41.87288648	         -0.75832245	          0.00000000	          0.01439683	          0.00000000	          0.00000000	          0.00000000	          0.00000000	          0.00000000	          0.00000000	          0.00000000	          4.59309710	          0.00000000	          0.00000000	          0.00000000	          0.00000000	
          0.59200000	         82.84671295	        684.40777808	        -42.43890005	         -0.75683710	          0.00000000	          0.01405850	          0.00000000	          0.00000000	          0.00000000	          0.00000000	          0.00000000	          0.00000000	          0.00000000	          4.55339368	          0.00000000	          0.00000000	          0.00000000	          0.00000000	
          0.59600000	         86.74279865	        700.55211878	        -43.14111919	         -0.75560095	          0.00000000	          0.01370406	          0.00000000	          0.00000000	          0.00000000	          0.00000000	          0.00000000	          0.00000000	          0.00000000	          4.48385334	          0.00000000	          0.00000000	          0.00000000	          0.00000000	
          0.60000000	         91.43823633	        716.61913825	        -43.85465548	         -0.75460329	          0.00000000	          0.01331841	          0.00000000	          0.00000000	          0.00000000	          0.00000000	          0.00000000	          0.00000000	          0.00000000	          4.39684348	          0.00000000	          0.00000000	          0.00000000	          0.00000000	
          0.60400000	         96.99392490	        732.35330362	        -44.36224043	         -0.75383015	          0.00000000	          0.01287426	          0.00000000	          0.00000000	          0.00000000	          0.00000000	          0.00000000	          0.00000000	          0.00000000	          4.31238878	          0.00000000	          0.00000000	          0.00000000	          0.00000000	
